<svg xmlns="http://www.w3.org/2000/svg" viewBox="0 0 54 54"><title>url-revealer-icon--padding</title><circle cx="27" cy="25.108" r="15.886" style="fill:#8cc63f;stroke:#8cc63f;stroke-linecap:round;stroke-miterlimit:10;stroke-width:1.5px"/><path d="M46.118,19.893A1.907,1.907,0,0,1,48,21.775v6.489a1.907,1.907,0,0,1-1.882,1.882H33.636a1.907,1.907,0,0,1-1.882-1.882V21.775a1.907,1.907,0,0,1,1.882-1.882H46.118m0-3H33.636a4.9,4.9,0,0,0-4.882,4.882v6.489a4.9,4.9,0,0,0,4.882,4.882H46.118A4.9,4.9,0,0,0,51,28.264V21.775a4.9,4.9,0,0,0-4.882-4.882Z" style="fill:#333"/><path d="M20.364,19.893a1.907,1.907,0,0,1,1.882,1.882v6.489a1.907,1.907,0,0,1-1.882,1.882H7.882A1.907,1.907,0,0,1,6,28.264V21.775a1.907,1.907,0,0,1,1.882-1.882H20.364m0-3H7.882A4.9,4.9,0,0,0,3,21.775v6.489a4.9,4.9,0,0,0,4.882,4.882H20.364a4.9,4.9,0,0,0,4.882-4.882V21.775a4.9,4.9,0,0,0-4.882-4.882Z" style="fill:#333"/><rect x="18.873" y="22.698" width="16.253" height="4.644" rx="2.322" style="fill:#333;stroke:#8cc63f;stroke-linecap:round;stroke-miterlimit:10;stroke-width:1.5px"/><circle cx="27" cy="25.108" r="17.108" style="fill:none;stroke:#4d4d4d;stroke-linecap:round;stroke-miterlimit:10;stroke-width:4px"/><circle cx="27" cy="25.108" r="17.108" style="fill:none;stroke:#000;stroke-linecap:round;stroke-miterlimit:10;stroke-width:3px"/><line x1="40.051" y1="38.473" x2="48.501" y2="46.923" style="fill:none;stroke:#000;stroke-linecap:round;stroke-miterlimit:10;stroke-width:5px"/></svg>