<?xml version="1.0" encoding="iso-8859-1"?>
<!-- Generator: Adobe Illustrator 19.0.0, SVG Export Plug-In . SVG Version: 6.00 Build 0)  -->
<svg version="1.1" id="Capa_1" xmlns="http://www.w3.org/2000/svg" xmlns:xlink="http://www.w3.org/1999/xlink" x="0px" y="0px"
	 viewBox="0 0 512 512" style="enable-background:new 0 0 512 512;" xml:space="preserve">
<path style="fill:#FFFFFF;" d="M76.002,481.573H41.921c-17.64,0-31.94-14.3-31.94-31.94V30.426h451.147v419.207
	c0,17.64-14.3,31.94-31.94,31.94h-42.335H76.002z"/>
<path style="fill:#A5DC69;" d="M429.189,30.426H41.921c-17.64,0-31.94,14.3-31.94,31.94v39.925h451.147V62.366
	C461.128,44.726,446.828,30.426,429.189,30.426z"/>
<g>
	<rect x="63.879" y="172.154" style="fill:#78D2FA;" width="206.04" height="139.736"/>
	<polygon style="fill:#78D2FA;" points="502.018,443.22 416.386,357.587 455.171,318.801 501.047,364.676 	"/>
</g>
<path style="fill:#231F20;" d="M20.071,102.29h436.067"/>
<circle style="fill:#FF5A5A;" cx="340.436" cy="242.851" r="106.908"/>
<path d="M204.437,76.339h207.174c5.512,0,9.981-4.47,9.981-9.981s-4.47-9.981-9.981-9.981H204.437c-5.512,0-9.981,4.47-9.981,9.981
	S198.926,76.339,204.437,76.339z"/>
<path d="M96.177,76.339c2.626,0,5.2-1.068,7.057-2.925c1.856-1.855,2.924-4.431,2.924-7.056c0-2.625-1.067-5.2-2.924-7.057
	c-1.857-1.856-4.431-2.924-7.057-2.924c-2.625,0-5.2,1.067-7.056,2.924c-1.856,1.856-2.925,4.422-2.925,7.057
	c0,2.625,1.068,5.2,2.925,7.056C90.977,75.271,93.552,76.339,96.177,76.339z"/>
<path d="M59.497,76.339c2.626,0,5.2-1.068,7.057-2.925c1.856-1.855,2.924-4.431,2.924-7.056c0-2.625-1.067-5.2-2.924-7.057
	c-1.857-1.856-4.431-2.924-7.057-2.924c-2.625,0-5.2,1.067-7.056,2.924c-1.856,1.856-2.925,4.432-2.925,7.057s1.068,5.2,2.925,7.056
	C54.296,75.271,56.871,76.339,59.497,76.339z"/>
<path d="M132.849,76.339c2.636,0,5.2-1.068,7.067-2.925c1.856-1.855,2.914-4.431,2.914-7.056c0-2.625-1.058-5.2-2.914-7.057
	c-1.866-1.856-4.431-2.924-7.067-2.924c-2.625,0-5.19,1.067-7.056,2.924c-1.856,1.856-2.925,4.432-2.925,7.057
	s1.068,5.2,2.925,7.056C127.658,75.271,130.224,76.339,132.849,76.339z"/>
<path d="M509.077,436.161l-78.575-78.574l12.327-12.327c0.003-0.003,0.007-0.006,0.01-0.009s0.006-0.007,0.009-0.01l12.324-12.324
	l38.817,38.818c3.899,3.897,10.217,3.897,14.116,0c3.898-3.898,3.898-10.218,0-14.116l-45.874-45.874
	c-3.897-3.896-10.215-3.898-14.116,0l-12.334,12.333l-5.975-5.975c17.162-20.348,27.521-46.61,27.521-75.25
	c0-64.451-52.435-116.886-116.886-116.886c-33.204,0-63.219,13.918-84.517,36.225c-0.094-0.003-0.185-0.014-0.279-0.014H63.879
	c-5.512,0-9.981,4.47-9.981,9.981v139.736c0,5.512,4.47,9.981,9.981,9.981h190.515c21.38,23.261,52.038,37.864,86.046,37.864
	c28.64,0,54.901-10.36,75.25-27.521l5.975,5.975l-12.337,12.337c-1.871,1.871-2.923,4.411-2.923,7.058s1.052,5.185,2.923,7.058
	l41.819,41.819v43.169c0,12.108-9.85,21.958-21.958,21.958H41.921c-12.108,0-21.958-9.85-21.958-21.958V112.266
	c0.037,0,0.073,0.006,0.109,0.006h431.076v44.988c0,5.512,4.47,9.981,9.981,9.981c5.512,0,9.981-4.47,9.981-9.981V62.366
	c0-23.115-18.805-41.921-41.921-41.921H41.921C18.805,20.445,0,39.251,0,62.366v387.268c0,23.115,18.805,41.921,41.921,41.921
	h387.268c23.115,0,41.921-18.805,41.921-41.921v-23.208l23.851,23.851c1.949,1.948,4.503,2.923,7.058,2.923
	c2.554,0,5.108-0.975,7.058-2.923C512.974,446.379,512.974,440.059,509.077,436.161z M73.86,301.913V182.139h166.733
	c-10.807,17.707-17.04,38.495-17.04,60.713c0,1.016,0.013,2.029,0.039,3.038l-12.578-24.297c-2.534-4.896-8.559-6.809-13.454-4.275
	c-4.895,2.534-6.809,8.557-4.275,13.454l23.438,45.275c1.775,3.429,5.261,5.394,8.872,5.394c1.406,0,2.829-0.314,4.179-0.94
	c2.561,7.509,5.872,14.673,9.834,21.411H73.86z M243.517,242.853c0-0.761,0.011-1.519,0.029-2.276l18.361,35.47
	c1.717,3.317,5.137,5.393,8.863,5.393c0.05,0,0.101,0,0.15-0.001c3.784-0.057,7.21-2.248,8.848-5.659l21.745-45.275
	c2.387-4.97,0.292-10.931-4.677-13.319c-4.965-2.384-10.931-0.292-13.319,4.677l-13.081,27.239l-14.239-27.506
	c-1.789-3.455-5.316-5.416-8.956-5.386c11.604-40.53,48.992-70.281,93.2-70.281c53.444,0,96.924,43.481,96.924,96.924
	s-43.481,96.924-96.924,96.924S243.517,296.297,243.517,242.853z M41.921,40.407h387.268c12.108,0,21.958,9.85,21.958,21.958v29.943
	H20.071c-0.037,0-0.073,0.005-0.109,0.006V62.366C19.962,50.258,29.813,40.407,41.921,40.407z"/>
<path d="M182.476,217.185c-4.965-2.384-10.931-0.292-13.319,4.677l-13.081,27.238l-14.239-27.506
	c-1.739-3.362-5.215-5.46-9.013-5.392c-3.784,0.057-7.21,2.248-8.848,5.659l-13.081,27.238l-14.239-27.506
	c-2.534-4.897-8.561-6.81-13.453-4.276c-4.896,2.534-6.81,8.557-4.276,13.453l23.437,45.275c1.74,3.362,5.242,5.45,9.013,5.392
	c3.784-0.057,7.21-2.248,8.848-5.659l13.081-27.239l14.239,27.506c1.717,3.317,5.137,5.393,8.863,5.393c0.05,0,0.101,0,0.15-0.001
	c3.784-0.057,7.21-2.248,8.848-5.659l21.745-45.275C189.539,225.535,187.446,219.573,182.476,217.185z"/>
<path d="M411.197,217.185c-4.97-2.384-10.931-0.292-13.319,4.677l-13.081,27.238l-14.239-27.507
	c-1.739-3.36-5.258-5.437-9.013-5.391c-3.784,0.057-7.21,2.248-8.848,5.659l-13.081,27.239l-14.239-27.507
	c-2.534-4.894-8.555-6.809-13.454-4.275c-4.895,2.534-6.809,8.557-4.275,13.454l23.438,45.275c1.717,3.315,5.137,5.392,8.863,5.392
	c0.051,0,0.101,0,0.15-0.001c3.784-0.057,7.21-2.248,8.848-5.659l13.081-27.239l14.239,27.507c1.717,3.315,5.137,5.392,8.863,5.392
	c0.051,0,0.101,0,0.15-0.001c3.784-0.057,7.21-2.248,8.848-5.659l21.744-45.275C418.259,225.535,416.165,219.573,411.197,217.185z"
	/>
<path d="M56.823,400.656c-1.856,1.856-2.924,4.432-2.924,7.057c0,2.625,1.067,5.2,2.924,7.056c1.856,1.856,4.432,2.925,7.057,2.925
	s5.2-1.068,7.056-2.925c1.856-1.855,2.925-4.431,2.925-7.056c0-2.625-1.068-5.2-2.925-7.057c-1.855-1.866-4.431-2.924-7.056-2.924
	C61.254,397.732,58.679,398.79,56.823,400.656z"/>
<path d="M88.166,407.723c0,5.512,4.47,9.981,9.981,9.981h194.368c5.512,0,9.981-4.47,9.981-9.981c0-5.512-4.47-9.981-9.981-9.981
	H98.147C92.636,397.742,88.166,402.21,88.166,407.723z"/>
<path d="M255.517,369.79c5.512,0,9.981-4.47,9.981-9.981c0-5.512-4.47-9.981-9.981-9.981h-58.889c-5.512,0-9.981,4.47-9.981,9.981
	c0,5.512,4.47,9.981,9.981,9.981H255.517z"/>
<path d="M151.804,349.827H63.879c-5.512,0-9.981,4.47-9.981,9.981c0,5.512,4.47,9.981,9.981,9.981h87.925
	c5.512,0,9.981-4.47,9.981-9.981C161.785,354.297,157.316,349.827,151.804,349.827z"/>
<g>
</g>
<g>
</g>
<g>
</g>
<g>
</g>
<g>
</g>
<g>
</g>
<g>
</g>
<g>
</g>
<g>
</g>
<g>
</g>
<g>
</g>
<g>
</g>
<g>
</g>
<g>
</g>
<g>
</g>
</svg>
