<svg xmlns="http://www.w3.org/2000/svg" viewBox="0 0 48 48"><title>url-revealer-icon</title><circle cx="24" cy="20" r="14.13" style="fill:#8cc63f;stroke:#8cc63f;stroke-linecap:round;stroke-miterlimit:10;stroke-width:1.5px"/><path d="M43.118,14.893A1.907,1.907,0,0,1,45,16.775v6.489a1.907,1.907,0,0,1-1.882,1.882H30.636a1.907,1.907,0,0,1-1.882-1.882V16.775a1.907,1.907,0,0,1,1.882-1.882H43.118m0-3H30.636a4.9,4.9,0,0,0-4.882,4.882v6.489a4.9,4.9,0,0,0,4.882,4.882H43.118A4.9,4.9,0,0,0,48,23.264V16.775a4.9,4.9,0,0,0-4.882-4.882Z" style="fill:#333"/><path d="M17.118,14.893A1.907,1.907,0,0,1,19,16.775v6.489a1.907,1.907,0,0,1-1.882,1.882H4.636a1.907,1.907,0,0,1-1.882-1.882V16.775a1.907,1.907,0,0,1,1.882-1.882H17.118m0-3H4.636A4.9,4.9,0,0,0-.246,16.775v6.489a4.9,4.9,0,0,0,4.882,4.882H17.118A4.9,4.9,0,0,0,22,23.264V16.775a4.9,4.9,0,0,0-4.882-4.882Z" style="fill:#333"/><rect x="15.693" y="17.698" width="16.253" height="4.644" rx="2.322" ry="2.322" style="fill:#333;stroke:#8cc63f;stroke-linecap:round;stroke-miterlimit:10;stroke-width:1.5px"/><circle cx="24" cy="20" r="15.217" style="fill:none;stroke:#b3b3b3;stroke-linecap:round;stroke-miterlimit:10;stroke-width:4px"/><circle cx="24" cy="20" r="15.217" style="fill:none;stroke:#000;stroke-linecap:round;stroke-miterlimit:10;stroke-width:3px"/><line x1="35.552" y1="31.975" x2="45.552" y2="41.975" style="fill:none;stroke:#000;stroke-linecap:round;stroke-miterlimit:10;stroke-width:5px"/></svg>